[Header]
FileType HTR
DataType HTRS
FileVersion 1
NumSegments 64
NumFrames 3
DataFrameRate 24
EulerRotationOrder ZYX
CalibrationUnits mm
RotationUnits Degrees
GlobalAxisofGravity Y
BoneLengthAxis Y
ScaleFactor 1.0
[SegmentNames&Hierarchy]
Hips	GLOBAL
Spine	Hips
Spine1	Spine
Spine2	Spine1
Neck	Spine2
Head	Neck
LeftEye	Head
RightEye	Head
LeftShoulder	Spine2
LeftArm	LeftShoulder
LeftForeArm	LeftArm
LeftHand	LeftForeArm
LeftHandThumb1	LeftHand
LeftHandThumb2	LeftHandThumb1
LeftHandThumb3	LeftHandThumb2
LeftHandThumb4	LeftHandThumb3
LeftHandIndex1	LeftHand
LeftHandIndex2	LeftHandIndex1
LeftHandIndex3	LeftHandIndex2
LeftHandIndex4	LeftHandIndex3
LeftHandMiddle1	LeftHand
LeftHandMiddle2	LeftHandMiddle1
LeftHandMiddle3	LeftHandMiddle2
LeftHandMiddle4	LeftHandMiddle3
LeftHandRing1	LeftHand
LeftHandRing2	LeftHandRing1
LeftHandRing3	LeftHandRing2
LeftHandRing4	LeftHandRing3
LeftHandPinky1	LeftHand
LeftHandPinky2	LeftHandPinky1
LeftHandPinky3	LeftHandPinky2
LeftHandPinky4	LeftHandPinky3
RightShoulder	Spine2
RightArm	RightShoulder
RightForeArm	RightArm
RightHand	RightForeArm
RightHandPinky1	RightHand
RightHandPinky2	RightHandPinky1
RightHandPinky3	RightHandPinky2
RightHandPinky4	RightHandPinky3
RightHandRing1	RightHand
RightHandRing2	RightHandRing1
RightHandRing3	RightHandRing2
RightHandRing4	RightHandRing3
RightHandMiddle1	RightHand
RightHandMiddle2	RightHandMiddle1
RightHandMiddle3	RightHandMiddle2
RightHandMiddle4	RightHandMiddle3
RightHandIndex1	RightHand
RightHandIndex2	RightHandIndex1
RightHandIndex3	RightHandIndex2
RightHandIndex4	RightHandIndex3
RightHandThumb1	RightHand
RightHandThumb2	RightHandThumb1
RightHandThumb3	RightHandThumb2
RightHandThumb4	RightHandThumb3
LeftUpLeg	Hips
LeftLeg	LeftUpLeg
LeftFoot	LeftLeg
LeftToeBase	LeftFoot
RightUpLeg	Hips
RightLeg	RightUpLeg
RightFoot	RightLeg
RightToeBase	RightFoot
[BasePosition]
Hips	0	0	0	0	0	0	1
Spine	0	0	0	0	0	0	1
Spine1	0	0	0	0	0	0	1
Spine2	0	0	0	0	0	0	1
Neck	0	0	0	0	0	0	1
Head	0	0	0	0	0	0	1
LeftEye	0	0	0	0	0	0	1
RightEye	0	0	0	0	0	0	1
LeftShoulder	0	0	0	0	0	0	1
LeftArm	0	0	0	0	0	0	1
LeftForeArm	0	0	0	0	0	0	1
LeftHand	0	0	0	0	0	0	1
LeftHandThumb1	0	0	0	0	0	0	1
LeftHandThumb2	0	0	0	0	0	0	1
LeftHandThumb3	0	0	0	0	0	0	1
LeftHandThumb4	0	0	0	0	0	0	1
LeftHandIndex1	0	0	0	0	0	0	1
LeftHandIndex2	0	0	0	0	0	0	1
LeftHandIndex3	0	0	0	0	0	0	1
LeftHandIndex4	0	0	0	0	0	0	1
LeftHandMiddle1	0	0	0	0	0	0	1
LeftHandMiddle2	0	0	0	0	0	0	1
LeftHandMiddle3	0	0	0	0	0	0	1
LeftHandMiddle4	0	0	0	0	0	0	1
LeftHandRing1	0	0	0	0	0	0	1
LeftHandRing2	0	0	0	0	0	0	1
LeftHandRing3	0	0	0	0	0	0	1
LeftHandRing4	0	0	0	0	0	0	1
LeftHandPinky1	0	0	0	0	0	0	1
LeftHandPinky2	0	0	0	0	0	0	1
LeftHandPinky3	0	0	0	0	0	0	1
LeftHandPinky4	0	0	0	0	0	0	1
RightShoulder	0	0	0	0	0	0	1
RightArm	0	0	0	0	0	0	1
RightForeArm	0	0	0	0	0	0	1
RightHand	0	0	0	0	0	0	1
RightHandPinky1	0	0	0	0	0	0	1
RightHandPinky2	0	0	0	0	0	0	1
RightHandPinky3	0	0	0	0	0	0	1
RightHandPinky4	0	0	0	0	0	0	1
RightHandRing1	0	0	0	0	0	0	1
RightHandRing2	0	0	0	0	0	0	1
RightHandRing3	0	0	0	0	0	0	1
RightHandRing4	0	0	0	0	0	0	1
RightHandMiddle1	0	0	0	0	0	0	1
RightHandMiddle2	0	0	0	0	0	0	1
RightHandMiddle3	0	0	0	0	0	0	1
RightHandMiddle4	0	0	0	0	0	0	1
RightHandIndex1	0	0	0	0	0	0	1
RightHandIndex2	0	0	0	0	0	0	1
RightHandIndex3	0	0	0	0	0	0	1
RightHandIndex4	0	0	0	0	0	0	1
RightHandThumb1	0	0	0	0	0	0	1
RightHandThumb2	0	0	0	0	0	0	1
RightHandThumb3	0	0	0	0	0	0	1
RightHandThumb4	0	0	0	0	0	0	1
LeftUpLeg	0	0	0	0	0	0	1
LeftLeg	0	0	0	0	0	0	1
LeftFoot	0	0	0	0	0	0	1
LeftToeBase	0	0	0	0	0	0	1
RightUpLeg	0	0	0	0	0	0	1
RightLeg	0	0	0	0	0	0	1
RightFoot	0	0	0	0	0	0	1
RightToeBase	0	0	0	0	0	0	1
[Hips]
27	136.6256256	992.2266235	3.710560799	12.61554241	-7.340405941	-2.559035778	1.0
28	133.8803864	933.4967651	0.1471781731	11.77067375	-3.311886787	0.8541622758	1.0
29	126.8652039	899.131958	-4.230093956	11.41306019	-1.5954355	1.897119164	1.0
[Spine]
27	0	101.8159943	1.315000057	5.986568928	0.6283435822	2.685785294	1.0
28	0	101.8159943	1.315000057	6.372513294	0.9143587351	0.600957036	1.0
29	0	101.8159943	1.315000057	5.88528347	1.929909468	0.03660738096	1.0
[Spine1]
27	0	100.8349991	-10.00800037	2.242360592	-0.589086771	2.096522093	1.0
28	0	100.8349991	-10.00800037	2.074483395	-0.4654174745	2.014034033	1.0
29	0	100.8349991	-10.00800037	1.993874311	-0.187203601	1.963566184	1.0
[Spine2]
27	0	91	-13.73399925	2.2000947	-0.2996849418	2.077787638	1.0
28	0	91	-13.73399925	2.033127069	-0.144978106	1.990932584	1.0
29	0	91	-13.73399925	1.950889707	0.1415374875	1.942369103	1.0
[Neck]
27	0	166.7169952	-25.16200066	-6.644935131	0.3417725563	-1.033708215	1.0
28	0	166.7169952	-25.16200066	-7.605978012	-0.3307831287	-1.075592875	1.0
29	0	166.7169952	-25.16200066	-7.328157902	-0.7717120051	-1.208597541	1.0
[Head]
27	0	96.17900085	16.84999847	-19.14183617	2.288380623	-13.49137115	1.0
28	0	96.17900085	16.84999847	-19.56896591	-1.108453155	-13.36070538	1.0
29	0	96.17900085	16.84999847	-19.33986282	-2.851439238	-13.51394749	1.0
[LeftEye]
27	30.6760006	64.09500122	92.83599854	0	0	0	1.0
28	30.6760006	64.09500122	92.83599854	0	0	0	1.0
29	30.6760006	64.09500122	92.83599854	0	0	0	1.0
[RightEye]
27	-30.6760006	64.09500122	92.83499908	0	0	0	1.0
28	-30.6760006	64.09500122	92.83499908	0	0	0	1.0
29	-30.6760006	64.09500122	92.83499908	0	0	0	1.0
[LeftShoulder]
27	45.70400238	109.4599991	-26.28000069	4.759872437	-2.696656227	11.66042328	1.0
28	45.70400238	109.4599991	-26.28000069	4.362550735	-7.099735737	6.215828896	1.0
29	45.70400238	109.4599991	-26.28000069	4.142942905	-10.90439034	-0.2992022038	1.0
[LeftArm]
27	105.923996	-5.24600029	-22.32099915	-46.75660706	8.054094315	-91.69633484	1.0
28	105.923996	-5.24600029	-22.32099915	-38.95816803	1.568881392	-89.34635162	1.0
29	105.923996	-5.24600029	-22.32099915	-33.23668671	-2.157428503	-83.40388489	1.0
[LeftForeArm]
27	278.414978	-0.0009999999311	0	-4.692331913e-06	-21.78972435	-0.0002176957933	1.0
28	278.414978	-0.0009999999311	0	4.557744049e-08	-11.92673588	-0.0002112410002	1.0
29	278.414978	-0.0009999999311	0	5.57302792e-06	-7.692792892	-0.0002085173473	1.0
[LeftHand]
27	283.2879944	0	0	-14.86148262	7.623316288	24.20703125	1.0
28	283.2879944	0	0	-23.0608654	4.45196867	9.742324829	1.0
29	283.2879944	0	0	-28.64914513	-2.878746033	-1.998785257	1.0
[LeftHandThumb1]
27	24.6609993	-15.75	26.8239994	12.79846191	-11.21904278	9.405520439	1.0
28	24.6609993	-15.75	26.8239994	16.37891006	-6.268905163	9.880361557	1.0
29	24.6609993	-15.75	26.8239994	18.35902977	-3.570717335	10.31503868	1.0
[LeftHandThumb2]
27	32.29800034	-18.64699936	18.64699936	-6.121365547	15.99950027	-5.551596165	1.0
28	32.29800034	-18.64699936	18.64699936	-2.493812799	27.33516502	-3.982833624	1.0
29	32.29800034	-18.64699936	18.64699936	-0.1479769945	33.55076981	-2.669750452	1.0
[LeftHandThumb3]
27	26.52600098	-15.31499958	15.31499958	0.3731552362	2.660774946	-1.56710875	1.0
28	26.52600098	-15.31499958	15.31499958	1.506340265	7.152540684	-0.5480569005	1.0
29	26.52600098	-15.31499958	15.31499958	2.172807455	9.626236916	0.05867065117	1.0
[LeftHandThumb4]
27	19.54599953	-11.28499985	11.28499985	0	0	0	1.0
28	19.54599953	-11.28499985	11.28499985	0	0	0	1.0
29	19.54599953	-11.28499985	11.28499985	0	0	0	1.0
[LeftHandIndex1]
27	91.09299469	-5.170999527	22.60099792	0.4827988446	-4.968834877	-0.9706856608	1.0
28	91.09299469	-5.170999527	22.60099792	-1.808586717	3.173899174	-24.8428154	1.0
29	91.09299469	-5.170999527	22.60099792	-3.41238451	7.176254749	-38.30346298	1.0
[LeftHandIndex2]
27	36.76399994	0	0	-0.2980995774	2.044677496	-12.72636795	1.0
28	36.76399994	0	0	-1.643087268	4.127701283	-37.32062149	1.0
29	36.76399994	0	0	-2.730449915	4.976738453	-50.95634079	1.0
[LeftHandIndex3]
27	28.83100128	0	0	-0.02397228964	0.0230971612	-2.338902235	1.0
28	28.83100128	0	0	-0.6413375735	2.391670227	-26.87491798	1.0
29	28.83100128	0	0	-1.396211386	3.523388863	-40.46401215	1.0
[LeftHandIndex4]
27	23.92700005	0	0	0	0	0	1.0
28	23.92700005	0	0	0	0	0	1.0
29	23.92700005	0	0	0	0	0	1.0
[LeftHandMiddle1]
27	95.33399963	0	0	-0.6026941538	4.642118454	-8.253372192	1.0
28	95.33399963	0	0	-3.690346241	8.451216698	-32.85857391	1.0
29	95.33399963	0	0	-5.638186455	9.899559975	-46.63022995	1.0
[LeftHandMiddle2]
27	36.98199844	0	0	-0.9285565615	3.202977419	-25.54510307	1.0
28	36.98199844	0	0	-2.744950771	4.885383129	-50.22898865	1.0
29	36.98199844	0	0	-4.007884979	5.437319279	-63.91070557	1.0
[LeftHandMiddle3]
27	29.50900078	0	0	-0.02098797075	0.7170242071	-4.430077553	1.0
28	29.50900078	0	0	-0.7625084519	3.02374053	-28.97860718	1.0
29	29.50900078	0	0	-1.572014332	4.100330353	-42.57980347	1.0
[LeftHandMiddle4]
27	28.3390007	0	0	0	0	0	1.0
28	28.3390007	0	0	0	0	0	1.0
29	28.3390007	0	0	0	0	0	1.0
[LeftHandRing1]
27	91.04499817	-0.4390000105	-18.65100098	-2.131335258	14.5110321	-18.81458282	1.0
28	91.04499817	-0.4390000105	-18.65100098	-5.44636488	13.0734005	-44.04382706	1.0
29	91.04499817	-0.4390000105	-18.65100098	-7.297479153	11.5187273	-57.86137772	1.0
[LeftHandRing2]
27	31.54000092	0	0	-0.7588657141	3.407553196	-32.28648376	1.0
28	31.54000092	0	0	-2.4017694	5.197676182	-57.05750275	1.0
29	31.54000092	0	0	-3.594413757	5.836382389	-70.79005432	1.0
[LeftHandRing3]
27	29.37700081	0	0	0.04022724926	1.135002375	-11.499897	1.0
28	29.37700081	0	0	-0.7144886255	3.437832594	-36.04886246	1.0
29	29.37700081	0	0	-1.530528665	4.509991646	-49.65328217	1.0
[LeftHandRing4]
27	26.47500038	0	0	0	0	0	1.0
28	26.47500038	0	0	0	0	0	1.0
29	26.47500038	0	0	0	0	0	1.0
[LeftHandPinky1]
27	80.77799988	-4.887000084	-38.06099701	-4.748296261	24.28938103	-28.89636421	1.0
28	80.77799988	-4.887000084	-38.06099701	-10.67101574	18.15200806	-54.71409607	1.0
29	80.77799988	-4.887000084	-38.06099701	-13.58174706	13.86292171	-68.29851532	1.0
[LeftHandPinky2]
27	36	0	0	-1.373476982	3.240687847	-37.51316833	1.0
28	36	0	0	-3.340153694	4.715913773	-62.36476517	1.0
29	36	0	0	-4.644717216	5.128919601	-76.13301086	1.0
[LeftHandPinky3]
27	21.14200211	0	0	-0.2553493977	2.103340387	-12.68410206	1.0
28	21.14200211	0	0	-1.473187923	4.220373631	-37.27453995	1.0
29	21.14200211	0	0	-2.49997139	5.110424042	-50.90833282	1.0
[LeftHandPinky4]
27	19.75699997	0	0	0	0	0	1.0
28	19.75699997	0	0	0	0	0	1.0
29	19.75699997	0	0	0	0	0	1.0
[RightShoulder]
27	-45.70000076	109.4620056	-26.28000069	8.250095367	-2.25825429	-4.38339138	1.0
28	-45.70000076	109.4620056	-26.28000069	8.354404449	-2.956391573	-5.868819714	1.0
29	-45.70000076	109.4620056	-26.28000069	8.007470131	-2.18272686	-6.742240906	1.0
[RightArm]
27	-105.9280014	-5.248000145	-22.32099915	-9.746580124	17.36557388	70.95457458	1.0
28	-105.9280014	-5.248000145	-22.32099915	-7.797303677	19.80091286	74.58772278	1.0
29	-105.9280014	-5.248000145	-22.32099915	-3.634096384	20.27038193	76.5068512	1.0
[RightForeArm]
27	-278.414978	0	0	-6.70204372e-06	19.28771591	-2.523595322e-05	1.0
28	-278.414978	0	0	-4.203569688e-07	16.17814064	-1.01862106e-05	1.0
29	-278.414978	0	0	-1.879637125e-06	15.45577431	6.907810985e-06	1.0
[RightHand]
27	-283.2879944	0	0.0009999999311	-12.32254696	1.751686335	-24.69806862	1.0
28	-283.2879944	0	0.0009999999311	-15.57515812	2.891865253	-14.37316418	1.0
29	-283.2879944	0	0.0009999999311	-15.22625732	4.622232914	-2.084718943	1.0
[RightHandPinky1]
27	-80.76699829	-4.885000229	-38.06000137	-1.617284656	-26.62747192	14.99725533	1.0
28	-80.76699829	-4.885000229	-38.06000137	-2.221758604	-25.08691597	18.63555527	1.0
29	-80.76699829	-4.885000229	-38.06000137	-3.562290668	-21.36008453	26.74503517	1.0
[RightHandPinky2]
27	-36	0	0.0009999999311	-0.6520133615	-2.179997206	24.66086578	1.0
28	-36	0	0.0009999999311	-0.8163999915	-2.470988035	28.00639725	1.0
29	-36	0	0.0009999999311	-1.25427556	-3.096937656	35.66255951	1.0
[RightHandPinky3]
27	-21.14200211	0	0	-0.1745007187	2.017877102	1.586793661	1.0
28	-21.14200211	0	0	-0.2209522873	1.692455888	4.862514496	1.0
29	-21.14200211	0	0	-0.3964172602	0.9619995952	12.35227776	1.0
[RightHandPinky4]
27	-19.75699997	0	0	0	0	0	1.0
28	-19.75699997	0	0	0	0	0	1.0
29	-19.75699997	0	0	0	0	0	1.0
[RightHandRing1]
27	-91.03599548	-0.4390000105	-18.65100098	-0.6511100531	-14.58967876	5.702541351	1.0
28	-91.03599548	-0.4390000105	-18.65100098	-0.9998030663	-14.19539833	9.117352486	1.0
29	-91.03599548	-0.4390000105	-18.65100098	-1.840334654	-13.16238403	16.89276314	1.0
[RightHandRing2]
27	-31.54000092	0	0	-0.2499385476	-2.248245001	19.48014641	1.0
28	-31.54000092	0	0	-0.3560858667	-2.557552814	22.78076744	1.0
29	-31.54000092	0	0	-0.6646397114	-3.238389254	30.33440399	1.0
[RightHandRing3]
27	-29.37700081	0	0	-0.07083079964	2.124220133	-2.732770443	1.0
28	-29.37700081	0	0	-0.03253749758	1.800128222	0.5459935069	1.0
29	-29.37700081	0	0	-0.01498673577	1.054541826	8.040744781	1.0
[RightHandRing4]
27	-26.47500038	0	0	0	0	0	1.0
28	-26.47500038	0	0	0	0	0	1.0
29	-26.47500038	0	0	0	0	0	1.0
[RightHandMiddle1]
27	-95.32500458	0	0	0.665146172	-2.088790417	-4.32656002	1.0
28	-95.32500458	0	0	0.365727365	-3.199672937	-1.141425729	1.0
29	-95.32500458	0	0	-0.3965052068	-5.65695858	6.194625854	1.0
[RightHandMiddle2]
27	-36.98199844	0	0	-0.314591527	-2.068671227	12.78453827	1.0
28	-36.98199844	0	0	-0.448355943	-2.373597145	16.07147026	1.0
29	-36.98199844	0	0	-0.8184540868	-3.038580894	23.59300423	1.0
[RightHandMiddle3]
27	-29.50900078	0	0	-0.01495104283	0.3423675299	-4.65332222	1.0
28	-29.50900078	0	0	-0.004098378588	0.01631295867	-1.375762105	1.0
29	-29.50900078	0	0	-0.04936473817	-0.7278842926	6.119130611	1.0
[RightHandMiddle4]
27	-28.3390007	0	0.0009999999311	0	0	0	1.0
28	-28.3390007	0	0.0009999999311	0	0	0	1.0
29	-28.3390007	0	0.0009999999311	0	0	0	1.0
[RightHandIndex1]
27	-91.08300018	-5.167999744	22.60099792	1.352846503	9.638918877	-11.21954823	1.0
28	-91.08300018	-5.167999744	22.60099792	1.116778374	7.330229759	-8.217240334	1.0
29	-91.08300018	-5.167999744	22.60099792	0.5307483077	2.081706047	-1.305058599	1.0
[RightHandIndex2]
27	-36.76399994	0	0	0.01806707866	-0.791476965	0.003841863479	1.0
28	-36.76399994	0	0	-0.03664620593	-1.120716572	3.282173395	1.0
29	-36.76399994	0	0	-0.2318526357	-1.858050346	10.7815609	1.0
[RightHandIndex3]
27	-28.83100128	0	0	-0.1104601994	1.893938303	-6.701428413	1.0
28	-28.83100128	0	0	-0.08135703951	1.565653801	-3.423314333	1.0
29	-28.83100128	0	0	-0.08561820537	0.8124864101	4.070519447	1.0
[RightHandIndex4]
27	-23.92700005	0	0	0	0	0	1.0
28	-23.92700005	0	0	0	0	0	1.0
29	-23.92700005	0	0	0	0	0	1.0
[RightHandThumb1]
27	-24.64799881	-15.72700024	26.82600021	10.84718132	13.88296509	-9.316550255	1.0
28	-24.64799881	-15.72700024	26.82600021	12.05180073	12.31473255	-9.387137413	1.0
29	-24.64799881	-15.72700024	26.82600021	14.71391582	8.668254852	-9.644499779	1.0
[RightHandThumb2]
27	-32.29800034	-18.64699936	18.64699936	-7.863634109	-9.894978523	6.06259346	1.0
28	-32.29800034	-18.64699936	18.64699936	-6.828682899	-13.56477547	5.780707359	1.0
29	-32.29800034	-18.64699936	18.64699936	-4.302848816	-21.93638611	4.844958782	1.0
[RightHandThumb3]
27	-26.52600098	-15.31399918	15.31399918	-0.2934022546	0.6377183199	2.842851639	1.0
28	-26.52600098	-15.31399918	15.31399918	0.02873655409	-0.8183174729	2.545628309	1.0
29	-26.52600098	-15.31399918	15.31399918	0.7956496477	-4.14274168	1.833471179	1.0
[RightHandThumb4]
27	-19.54599953	-11.28499985	11.28499985	0	0	0	1.0
28	-19.54599953	-11.28499985	11.28499985	0	0	0	1.0
29	-19.54599953	-11.28499985	11.28499985	0	0	0	1.0
[LeftUpLeg]
27	82.07800293	-67.51699829	-15.99599934	-37.22189331	8.174988747	-1.878014565	1.0
28	82.07800293	-67.51699829	-15.99599934	-45.59108734	5.165623665	-4.590589523	1.0
29	82.07800293	-67.51699829	-15.99599934	-50.32214737	4.423632622	-4.958850384	1.0
[LeftLeg]
27	0	-443.7049866	2.845999956	35.9302597	5.398059845	8.12779808	1.0
28	0	-443.7049866	2.845999956	52.2869873	2.080717325	7.715574741	1.0
29	0	-443.7049866	2.845999956	60.94673157	2.148429871	8.453511238	1.0
[LeftFoot]
27	0	-444.2789917	-29.8219986	-9.553552628	13.00267887	2.775794268	1.0
28	0	-444.2789917	-29.8219986	-17.68656158	12.78423977	-0.1928008944	1.0
29	0	-444.2789917	-29.8219986	-20.7916851	11.99387169	1.33400631	1.0
[LeftToeBase]
27	0	-87.28699493	107.1060028	-6.373970509	-3.812662726e-06	5.420975413e-06	1.0
28	0	-87.28699493	107.1060028	-7.138418198	-9.493865605e-08	-5.478501407e-06	1.0
29	0	-87.28699493	107.1060028	-6.318183422	-8.51097775e-06	-1.17366119e-06	1.0
[RightUpLeg]
27	-82.07800293	-67.51699829	-15.99599934	-69.8024826	-0.1606861055	-5.165009975	1.0
28	-82.07800293	-67.51699829	-15.99599934	-59.57072067	-2.168359995	-7.21887064	1.0
29	-82.07800293	-67.51699829	-15.99599934	-50.18764114	-1.136640549	-5.661815166	1.0
[RightLeg]
27	0	-443.7049866	2.861999989	101.7277679	-3.274154663	-6.086266994	1.0
28	0	-443.7049866	2.861999989	84.81348419	-3.599322557	-4.975767612	1.0
29	0	-443.7049866	2.861999989	72.17611694	-2.906265974	-4.110906124	1.0
[RightFoot]
27	0	-444.2770081	-29.83799934	0.5274672508	5.949856758	7.381669044	1.0
28	0	-444.2770081	-29.83799934	-4.122235775	7.167069435	8.30136013	1.0
29	0	-444.2770081	-29.83799934	-11.82940197	5.004289627	6.521142483	1.0
[RightToeBase]
27	0	-87.28699493	107.1060028	-1.693377614	-3.809086593e-06	-4.213595162e-07	1.0
28	0	-87.28699493	107.1060028	-3.088483334	-6.649807801e-06	-9.36308993e-07	1.0
29	0	-87.28699493	107.1060028	-11.25028229	-0.4570761323	-2.974351168	1.0
[EndOfFile]
